<svg id='svg-tree' version="1.0" 
    xmlns="http://www.w3.org/2000/svg" width="183.000000pt" height="184.000000pt" viewBox="0 0 183.000000 184.000000" preserveAspectRatio="xMidYMid meet">
    <g class='lines' id='svgGroupTree' transform="translate(0.000000,184.000000) scale(0.100000,-0.100000)" fill="#545454" stroke="none">
        <path d="M840 1826 c-41 -8 -92 -21 -113 -30 -21 -8 -41 -15 -45 -14 -10 2
       -37 -9 -117 -48 -191 -92 -425 -360 -481 -549 -24 -86 -41 -199 -37 -256 22
       -306 130 -517 357 -700 103 -82 148 -106 280 -148 132 -42 268 -55 413 -37 60
       7 192 49 256 83 83 42 246 195 314 294 107 156 170 367 159 534 -3 50 -8 101
       -11 115 -3 14 -8 38 -11 54 -23 127 -116 303 -218 415 -88 95 -253 204 -376
       248 -119 43 -261 58 -370 39z m220 -51 c12 -4 32 -8 43 -10 104 -15 262 -83
       357 -155 61 -46 150 -141 196 -210 69 -103 131 -295 134 -415 4 -124 2 -157
       -14 -225 -2 -8 -7 -34 -11 -57 -28 -156 -284 -472 -450 -555 -41 -21 -153 -56
       -190 -60 -23 -2 -33 3 -50 28 -27 40 -68 160 -60 174 4 6 21 0 43 -15 39 -27
       58 -31 64 -15 3 9 23 15 73 20 6 0 2 5 -8 11 -9 5 -21 8 -26 4 -5 -3 -12 -1
       -16 5 -3 5 -17 10 -31 10 -14 0 -32 7 -41 15 -8 8 -19 13 -24 10 -5 -4 -6 2
       -2 11 5 13 3 16 -10 11 -9 -3 -17 -2 -17 4 0 6 10 9 23 7 12 -2 21 -9 20 -16
       -2 -6 4 -12 12 -12 8 0 15 -4 15 -8 0 -5 10 -8 23 -7 12 1 26 0 32 -3 5 -3 21
       -7 35 -8 l25 -3 -23 18 c-21 16 -22 19 -8 31 14 11 16 10 10 -4 -3 -9 -2 -17
       2 -17 47 -7 55 -6 49 10 -5 13 -4 14 6 4 7 -7 20 -13 28 -13 13 1 13 3 -2 14
       -16 12 -15 14 18 20 19 4 35 12 35 18 0 6 -11 8 -27 5 -24 -4 -26 -4 -10 8 21
       15 22 29 1 21 -12 -4 -15 -2 -10 9 3 8 0 15 -7 15 -8 0 -9 3 -1 8 11 7 15 42
       5 42 -4 0 -16 -7 -28 -15 -20 -14 -22 -14 -20 4 1 11 10 22 21 25 15 4 17 8 8
       19 -10 11 -9 17 4 28 15 12 14 14 -7 20 -14 3 -35 -1 -52 -10 -25 -14 -28 -14
       -49 6 -19 19 -19 23 -5 37 13 13 16 14 21 1 3 -9 12 -12 23 -8 12 4 10 -1 -7
       -15 -14 -12 -21 -21 -17 -22 7 0 53 23 77 38 2 2 -2 7 -9 12 -12 7 -12 12 2
       33 15 23 15 26 0 31 -12 5 -14 16 -11 51 4 30 2 45 -6 45 -6 0 -5 4 3 9 9 6
       10 11 3 15 -6 4 -8 14 -5 22 5 14 3 15 -15 5 -29 -15 -40 -14 -17 2 11 9 15
       19 10 27 -4 7 -2 16 6 20 10 7 10 12 0 23 -9 12 -9 16 1 20 8 4 5 8 -9 12 -12
       4 -20 12 -17 18 3 8 -9 12 -31 13 -35 0 -51 -15 -17 -17 11 0 13 -2 4 -6 -14
       -5 -56 32 -58 52 0 5 -2 16 -2 23 -1 9 -9 11 -23 7 -16 -5 -20 -3 -17 6 3 8
       13 14 24 14 10 0 25 4 32 8 6 5 17 5 22 2 6 -3 10 -2 10 4 0 5 8 11 17 13 12
       2 18 14 19 36 2 29 -1 32 -20 26 -21 -7 -21 -6 -3 14 11 11 16 26 12 31 -3 6
       1 11 9 11 20 0 20 7 1 27 -18 17 -50 10 -39 -9 6 -9 3 -9 -9 1 -9 7 -25 10
       -34 7 -17 -7 -17 -6 0 11 15 16 19 16 27 3 7 -10 10 -11 10 -2 0 6 7 12 15 12
       20 0 19 15 -1 35 -15 15 -15 17 5 22 26 7 26 8 0 34 -20 20 -22 20 -40 3 -17
       -15 -29 -7 -12 10 10 10 11 46 1 46 -5 0 -6 5 -3 10 3 6 -1 10 -11 10 -13 0
       -14 3 -4 15 7 8 9 15 5 15 -4 0 -2 7 5 15 10 12 10 18 0 30 -11 14 -15 14 -33
       -2 -19 -17 -20 -17 -15 2 3 11 9 28 13 37 5 13 2 15 -14 11 -12 -3 -21 -1 -21
       6 0 6 -7 11 -17 11 -9 0 -13 3 -10 7 4 3 0 14 -9 24 -13 14 -21 16 -35 8 -11
       -5 -19 -16 -19 -24 0 -8 -5 -15 -11 -15 -19 0 -41 -28 -28 -36 9 -5 7 -11 -5
       -20 -10 -7 -15 -18 -11 -23 3 -6 -2 -15 -12 -19 -22 -9 -27 -42 -6 -42 8 0 12
       -4 8 -10 -3 -5 -13 -6 -22 -3 -12 5 -15 2 -10 -9 3 -10 0 -19 -9 -22 -10 -4
       -11 -11 -4 -30 5 -14 5 -26 1 -28 -5 -2 -11 -13 -15 -24 -6 -19 -3 -21 29 -18
       19 1 35 -2 35 -7 0 -9 -21 -13 -53 -11 -13 2 -17 -4 -15 -15 2 -10 -3 -24 -12
       -31 -11 -10 -12 -15 -2 -18 6 -3 12 -13 12 -21 0 -13 3 -13 15 -3 12 10 15 9
       15 -5 0 -17 1 -17 19 -1 13 12 21 14 26 6 4 -7 18 -9 31 -6 13 4 24 2 24 -3 0
       -15 -32 -22 -46 -10 -9 7 -19 7 -36 -2 -13 -7 -32 -13 -43 -13 -11 -1 -19 -7
       -17 -15 1 -7 -3 -20 -10 -29 -11 -13 -10 -15 4 -9 10 3 20 2 23 -3 6 -9 31 -8
       41 3 8 8 24 -1 24 -14 0 -5 -6 -9 -14 -9 -8 0 -16 -6 -19 -12 -4 -10 -7 -10
       -18 0 -19 17 -36 15 -60 -9 -14 -14 -18 -24 -11 -31 6 -6 8 -17 4 -26 -4 -12
       -1 -14 13 -9 14 6 16 5 7 -6 -18 -21 -1 -29 25 -12 13 9 23 11 23 6 0 -21 37
       -16 65 8 24 21 26 22 11 4 -11 -13 -14 -23 -8 -23 6 0 14 5 17 10 3 6 11 10
       17 10 7 0 2 -9 -9 -20 -12 -11 -36 -20 -55 -20 -70 -1 -90 -6 -104 -24 -18
       -25 -18 -36 1 -36 19 0 20 -19 1 -26 -9 -3 -13 -16 -12 -32 3 -23 7 -27 32
       -24 26 2 25 0 -14 -19 -26 -13 -41 -27 -38 -35 3 -7 -2 -18 -10 -24 -16 -14
       -19 -35 -4 -25 6 3 10 1 10 -4 0 -6 -4 -11 -8 -11 -5 0 -9 -13 -9 -29 0 -23 6
       -31 25 -36 15 -4 31 0 41 9 9 7 32 18 51 24 19 5 44 13 55 17 l20 7 -20 -14
       c-11 -9 -37 -21 -57 -28 -20 -8 -35 -17 -32 -22 3 -5 2 -8 -3 -7 -22 4 -43 -2
       -43 -12 0 -8 12 -10 35 -6 19 3 35 4 35 2 0 -8 -74 -45 -111 -55 -29 -8 -39
       -15 -35 -26 3 -8 -3 -20 -14 -26 -24 -15 -25 -25 -5 -30 12 -2 10 -9 -10 -31
       -21 -22 -23 -28 -11 -33 8 -3 20 -3 26 1 5 3 10 1 10 -6 0 -8 9 -4 23 8 25 23
       71 43 50 22 -31 -31 3 -32 40 -1 9 8 17 10 17 5 0 -6 -12 -19 -27 -29 -15 -9
       -22 -19 -16 -21 8 -3 6 -14 -6 -37 -18 -31 -18 -32 -1 -31 9 1 32 18 50 38 17
       20 37 37 44 37 7 0 7 -3 1 -8 -5 -4 -21 -20 -35 -36 -19 -22 -21 -28 -7 -23 9
       4 17 2 17 -5 0 -7 4 -7 13 1 8 6 16 9 19 6 3 -3 13 4 23 15 22 24 40 26 31 4
       -5 -14 -1 -16 22 -11 l29 6 -13 -73 c-14 -84 -37 -144 -57 -152 -18 -7 -149
       30 -248 70 -146 58 -340 240 -422 394 -48 91 -87 212 -97 302 -5 41 -7 77 -5
       80 2 3 5 39 6 80 9 203 155 460 353 618 86 69 233 132 376 161 42 9 209 6 240
       -4z" />
    </g>
</svg>